<svg width="30" height="30" viewBox="0 0 20 20" fill="none" xmlns="http://www.w3.org/2000/svg">
<path d="M18.75 10C19.4404 10 20.0081 10.5618 19.922 11.2468C19.7125 12.9136 19.0855 14.5079 18.0902 15.8779C16.8489 17.5863 15.0986 18.858 13.0902 19.5106C11.0817 20.1631 8.91826 20.1631 6.90983 19.5106C4.9014 18.858 3.15111 17.5863 1.90983 15.8779C0.668549 14.1694 -1.84619e-07 12.1118 0 10C1.84619e-07 7.88821 0.66855 5.83062 1.90983 4.12215C3.15111 2.41367 4.9014 1.14201 6.90983 0.489434C8.52026 -0.0338248 10.2304 -0.137518 11.8803 0.178355C12.5583 0.308164 12.9172 1.02169 12.7039 1.67826V1.67826C12.4906 2.33482 11.785 2.68286 11.1022 2.58142C9.96101 2.41189 8.79024 2.50711 7.68237 2.86708C6.17605 3.35651 4.86333 4.31025 3.93237 5.59161C3.00141 6.87297 2.5 8.41615 2.5 10C2.5 11.5838 3.00141 13.127 3.93237 14.4084C4.86333 15.6897 6.17605 16.6435 7.68237 17.1329C9.1887 17.6224 10.8113 17.6224 12.3176 17.1329C13.824 16.6435 15.1367 15.6897 16.0676 14.4084C16.7523 13.466 17.2047 12.3819 17.3961 11.2443C17.5106 10.5635 18.0596 10 18.75 10V10Z" fill="#D87D4A"/>
</svg>
